<?xml version="1.0" encoding="UTF-8"?>
<svg id="a" data-name="Calque 1" xmlns="http://www.w3.org/2000/svg" viewBox="0 0 580 816.68">
  <defs>
    <style>
      .b {
        fill: #fff;
      }

      .c {
        fill: #76b83b;
      }

      .d {
        fill: #e83e3e;
      }

      .e {
        fill: #7c1c1c;
      }
    </style>
  </defs>
  <g>
    <path class="d" d="m1.1,523.01c11.9,147.93,38.24,250.21,188.52,264.98,22.28,2.19,44.28,6.69,65.43,14.05,132.79,46.23,222.37-20.09,289.24-155.67,71.12-144.21,47.88-314.51-178.92-339.63-21.07-2.33-41.86-6.99-61.87-13.99C86.15,216.76-11.66,364.39,1.1,523.01Z"/>
    <ellipse class="e" cx="227.41" cy="453.37" rx="25.46" ry="26.73"/>
    <ellipse class="e" cx="445.33" cy="498.57" rx="25.46" ry="26.73"/>
    <path class="e" d="m338.35,560.58c-54.71,0-79.18-49-79.48-49.63-3.06-6.33-.41-13.94,5.92-17,6.34-3.06,13.94-.41,17,5.93.05.09,7.54,14.97,23.23,25.26,20.32,13.32,45.19,13.19,73.93-.41,6.36-3.01,13.94-.3,16.95,6.06,3.01,6.36.29,13.95-6.06,16.95-19.48,9.22-36.61,12.85-51.49,12.85Z"/>
    <path class="b" d="m107.51,345.29c-3.5,0-6.98-1.43-9.5-4.25-4.68-5.24-4.23-13.29,1.01-17.98,39.63-35.41,88.67-30.88,90.74-30.67,7,.71,12.09,6.96,11.38,13.95-.71,6.98-6.94,12.06-13.91,11.38h0c-.4-.03-40.19-3.43-71.24,24.32-2.43,2.17-5.46,3.24-8.48,3.24Z"/>
    <path class="b" d="m84,369.72c-3.36,0-6.65-1.35-9.01-3.72-.59-.59-1.12-1.25-1.58-1.94-.46-.69-.84-1.43-1.17-2.19-.31-.79-.56-1.58-.71-2.39-.18-.81-.25-1.65-.25-2.5s.08-1.65.25-2.47c.15-.81.41-1.63.71-2.39.33-.76.71-1.5,1.17-2.19.46-.71.99-1.35,1.58-1.94,2.95-2.95,7.36-4.33,11.48-3.49.81.18,1.63.41,2.39.74.76.3,1.5.71,2.19,1.17.71.46,1.35.99,1.94,1.58s1.12,1.22,1.58,1.94c.48.69.87,1.43,1.17,2.19.33.76.59,1.58.74,2.39.18.82.25,1.66.25,2.47s-.08,1.68-.25,2.5c-.15.81-.41,1.6-.74,2.39-.31.76-.69,1.5-1.17,2.19-.46.69-.99,1.35-1.58,1.94s-1.22,1.12-1.94,1.58c-.69.46-1.43.87-2.19,1.17-.76.33-1.58.56-2.39.74-.82.15-1.65.23-2.47.23Z"/>
  </g>
  <path class="c" d="m351.3,284.16c-5.03,0-10.06-1.85-14-5.57-8.17-7.73-8.53-20.63-.79-28.8,48.78-51.54,67.34-114.25,47.29-159.76-14.33-32.53-46.51-50.04-90.8-49.27-.12,0-.24,0-.36,0-11.09,0-20.17-8.89-20.36-20.02-.19-11.25,8.77-20.52,20.02-20.71,60.82-.97,107.71,25.78,128.77,73.58,26.68,60.56,5.1,140.7-54.98,204.19-4.01,4.23-9.4,6.37-14.8,6.37Z"/>
</svg>